<svg width="26" height="32" viewBox="0 0 26 32" fill="none" xmlns="http://www.w3.org/2000/svg">
<g filter="url(#filter0_dd)">
<path fill-rule="evenodd" clip-rule="evenodd" d="M18.995 13.4495V12.2835C18.995 11.7939 18.5484 11.397 17.9981 11.397C17.4485 11.397 17.0036 11.7924 17.0016 12.2805V11.6619C17.0016 11.0191 16.4034 10.4983 15.6655 10.4983C14.9272 10.4983 14.329 11.0191 14.329 11.6619V10.7629C14.329 10.1203 13.7331 9.59956 12.9978 9.59956C12.2623 9.59956 11.6664 10.1203 11.6664 10.7629V4.06913C11.6664 3.47877 11.1454 3 10.5025 3C9.85994 3 9.33901 3.47877 9.33901 4.06913V7.86058C9.33901 7.86088 9.33901 7.86148 9.33901 7.86178V14.0429C9.33901 14.2412 9.11371 14.4019 8.83608 14.4019C8.55812 14.4019 8.33281 14.2412 8.33281 14.0429V11.0959C7.59658 11.0968 7 11.619 7 12.2634L7.00167 16.2426C7.00167 16.2579 7.00633 16.272 7.007 16.2867C7.006 16.302 7.00067 16.314 7.00067 16.3299C7.00067 17.6561 10.3132 19.8766 10.3132 21C11.4874 21 15.2365 21 16.9656 21C16.9656 19.7458 19 17.7875 19 15.9012C19 14.015 19 13.4723 19 13.4723C19 13.4723 18.9987 13.4633 18.995 13.4495Z" fill="white"/>
<path d="M17.9981 10.872C17.7839 10.872 17.5728 10.9153 17.3793 10.9953C17.0851 10.3692 16.3906 9.9733 15.6655 9.9733C15.3429 9.9733 15.0264 10.0516 14.7486 10.1936C14.4841 9.51247 13.7589 9.07456 12.9978 9.07456C12.717 9.07456 12.4411 9.13415 12.1914 9.24355V4.06913C12.1914 3.14783 11.3926 2.475 10.5025 2.475C9.61265 2.475 8.81401 3.14792 8.81401 4.06913V7.86058V7.86058V7.86059V7.86059V7.86059V7.8606V7.8606V7.86061V7.86061V7.86062V7.86062V7.86062V7.86063V7.86063V7.86064V7.86064V7.86064V7.86065V7.86065V7.86066V7.86066V7.86066V7.86067V7.86067V7.86068V7.86068V7.86068V7.86069V7.86069V7.8607V7.8607V7.86071V7.86071V7.86071V7.86072V7.86072V7.86073V7.86073V7.86074V7.86074V7.86075V7.86075V7.86075V7.86076V7.86076V7.86077V7.86077V7.86078V7.86078V7.86079V7.86079V7.8608V7.8608V7.86081V7.86081V7.86081V7.86082V7.86082V7.86083V7.86083V7.86084V7.86084V7.86085V7.86085V7.86086V7.86086V7.86087V7.86087V7.86088V7.86088V7.86089V7.86089V7.8609V7.8609V7.86091V7.86091V7.86092V7.86092V7.86093V7.86093V7.86094V7.86094V7.86095V7.86095V7.86096V7.86096V7.86097V7.86097V7.86098V7.86098V7.86099V7.86099V7.861V7.861V7.86101V7.86101V7.86102V7.86102V7.86103V7.86103V7.86104V7.86104V7.86105V7.86106V7.86106V7.86107V7.86107V7.86108V7.86108V7.86109V7.86109V7.8611V7.8611V7.86111V7.86111V7.86112V7.86112V7.86113V7.86113V7.86114V7.86114V7.86115V7.86116V7.86116V7.86117V7.86117V7.86118V7.86118V7.86119V7.86119V7.8612V7.8612V7.86121V7.86121V7.86122V7.86122V7.86123V7.86123V7.86124V7.86124V7.86125V7.86126V7.86126V7.86127V7.86127V7.86128V7.86128V7.86129V7.86129V7.8613V7.8613V7.86131V7.86131V7.86132V7.86132V7.86133V7.86133V7.86134V7.86134V7.86135V7.86135V7.86136V7.86136V7.86137V7.86137V7.86138V7.86138V7.86139V7.86139V7.8614V7.8614V7.86141V7.86141V7.86142V7.86142V7.86143V7.86143V7.86144V7.86144V7.86145V7.86145V7.86146V7.86146V7.86147V7.86147V7.86148V7.86148V7.86149V7.86149V7.8615V7.8615V7.86151V7.86151V7.86152V7.86152V7.86153V7.86153V7.86154V7.86154V7.86155V7.86155V7.86156V7.86156V7.86157V7.86157V7.86158V7.86158V7.86158V7.86159V7.86159V7.8616V7.8616V7.86161V7.86161V7.86162V7.86162V7.86162V7.86163V7.86163V7.86164V7.86164V7.86165V7.86165V7.86165V7.86166V7.86166V7.86167V7.86167V7.86168V7.86168V7.86168V7.86169V7.86169V7.8617V7.8617V7.8617V7.86171V7.86171V7.86172V7.86172V7.86172V7.86173V7.86173V7.86174V7.86174V7.86174V7.86175V7.86175V7.86176V7.86176V7.86177V7.86177V7.86178V10.5703L8.33217 10.5709C7.37441 10.572 6.475 11.2656 6.475 12.2634L6.475 12.2636L6.47667 16.2426C6.47667 16.2427 6.47667 16.2427 6.47667 16.2427C6.47667 16.2428 6.47667 16.2428 6.47667 16.2428C6.47667 16.2561 6.47712 16.2685 6.47781 16.2798C6.47652 16.2951 6.47567 16.312 6.47567 16.3299C6.47567 16.849 6.78394 17.3589 7.09893 17.777C7.43153 18.2185 7.86773 18.6777 8.27849 19.1049C8.31172 19.1394 8.34478 19.1738 8.37762 19.2079C8.76181 19.6071 9.11707 19.9762 9.38621 20.3115C9.53124 20.4922 9.6382 20.6473 9.70704 20.7771C9.77879 20.9124 9.78821 20.9815 9.78821 21V21.525H10.3132H10.3201H10.3271H10.3341H10.3412H10.3483H10.3555H10.3628H10.3701H10.3775H10.3849H10.3924H10.3999H10.4076H10.4152H10.4229H10.4307H10.4385H10.4464H10.4543H10.4623H10.4704H10.4785H10.4866H10.4948H10.5031H10.5114H10.5198H10.5282H10.5367H10.5452H10.5538H10.5624H10.5711H10.5798H10.5886H10.5975H10.6064H10.6153H10.6243H10.6334H10.6425H10.6516H10.6608H10.6701H10.6794H10.6887H10.6981H10.7076H10.717H10.7266H10.7362H10.7458H10.7555H10.7653H10.775H10.7849H10.7948H10.8047H10.8147H10.8247H10.8348H10.8449H10.855H10.8652H10.8755H10.8858H10.8961H10.9065H10.917H10.9275H10.938H10.9485H10.9592H10.9698H10.9805H10.9913H11.002H11.0129H11.0238H11.0347H11.0456H11.0566H11.0677H11.0788H11.0899H11.101H11.1123H11.1235H11.1348H11.1461H11.1575H11.1689H11.1804H11.1919H11.2034H11.215H11.2266H11.2382H11.2499H11.2616H11.2734H11.2852H11.2971H11.3089H11.3209H11.3328H11.3448H11.3568H11.3689H11.381H11.3931H11.4053H11.4175H11.4298H11.442H11.4544H11.4667H11.4791H11.4915H11.504H11.5165H11.529H11.5416H11.5541H11.5668H11.5794H11.5921H11.6048H11.6176H11.6304H11.6432H11.6561H11.669H11.6819H11.6948H11.7078H11.7208H11.7339H11.7469H11.76H11.7732H11.7863H11.7995H11.8127H11.826H11.8393H11.8526H11.8659H11.8793H11.8927H11.9061H11.9196H11.933H11.9465H11.9601H11.9736H11.9872H12.0008H12.0145H12.0281H12.0418H12.0556H12.0693H12.0831H12.0969H12.1107H12.1245H12.1384H12.1523H12.1662H12.1802H12.1941H12.2081H12.2221H12.2362H12.2502H12.2643H12.2784H12.2925H12.3067H12.3209H12.3351H12.3493H12.3635H12.3778H12.3921H12.4064H12.4207H12.435H12.4494H12.4638H12.4781H12.4926H12.507H12.5215H12.5359H12.5504H12.565H12.5795H12.594H12.6086H12.6232H12.6378H12.6524H12.667H12.6817H12.6964H12.7111H12.7258H12.7405H12.7552H12.77H12.7847H12.7995H12.8143H12.8291H12.8439H12.8588H12.8736H12.8885H12.9034H12.9183H12.9332H12.9481H12.9631H12.978H12.993H13.0079H13.0229H13.0379H13.0529H13.0679H13.083H13.098H13.1131H13.1281H13.1432H13.1583H13.1734H13.1885H13.2036H13.2187H13.2339H13.249H13.2641H13.2793H13.2945H13.3096H13.3248H13.34H13.3552H13.3704H13.3856H13.4009H13.4161H13.4313H13.4466H13.4618H13.4771H13.4923H13.5076H13.5228H13.5381H13.5534H13.5687H13.584H13.5993H13.6146H13.6299H13.6452H13.6605H13.6758H13.6911H13.7064H13.7217H13.737H13.7524H13.7677H13.783H13.7984H13.8137H13.829H13.8443H13.8597H13.875H13.8903H13.9057H13.921H13.9364H13.9517H13.967H13.9824H13.9977H14.013H14.0283H14.0437H14.059H14.0743H14.0896H14.105H14.1203H14.1356H14.1509H14.1662H14.1815H14.1968H14.2121H14.2274H14.2427H14.258H14.2732H14.2885H14.3038H14.319H14.3343H14.3496H14.3648H14.38H14.3953H14.4105H14.4257H14.4409H14.4561H14.4713H14.4865H14.5017H14.5169H14.532H14.5472H14.5623H14.5775H14.5926H14.6077H14.6228H14.6379H14.653H14.6681H14.6832H14.6983H14.7133H14.7283H14.7434H14.7584H14.7734H14.7884H14.8034H14.8183H14.8333H14.8482H14.8632H14.8781H14.893H14.9079H14.9228H14.9376H14.9525H14.9673H14.9822H14.997H15.0118H15.0265H15.0413H15.0561H15.0708H15.0855H15.1002H15.1149H15.1296H15.1442H15.1588H15.1735H15.1881H15.2026H15.2172H15.2317H15.2463H15.2608H15.2753H15.2898H15.3042H15.3186H15.3331H15.3475H15.3618H15.3762H15.3905H15.4048H15.4191H15.4334H15.4477H15.4619H15.4761H15.4903H15.5045H15.5186H15.5327H15.5468H15.5609H15.575H15.589H15.603H15.617H15.631H15.6449H15.6588H15.6727H15.6866H15.7004H15.7142H15.728H15.7418H15.7555H15.7692H15.7829H15.7966H15.8102H15.8238H15.8374H15.851H15.8645H15.878H15.8915H15.9049H15.9184H15.9318H15.9451H15.9584H15.9718H15.985H15.9983H16.0115H16.0247H16.0378H16.051H16.0641H16.0771H16.0902H16.1032H16.1161H16.1291H16.142H16.1549H16.1677H16.1805H16.1933H16.2061H16.2188H16.2315H16.2441H16.2568H16.2694H16.2819H16.2944H16.3069H16.3194H16.3318H16.3442H16.3565H16.3688H16.3811H16.3933H16.4055H16.4177H16.4298H16.4419H16.454H16.466H16.478H16.4899H16.5019H16.5137H16.5256H16.5374H16.5491H16.5608H16.5725H16.5842H16.5958H16.6073H16.6189H16.6303H16.6418H16.6532H16.6646H16.6759H16.6872H16.6984H16.7096H16.7208H16.7319H16.743H16.754H16.765H16.776H16.7869H16.7977H16.8086H16.8193H16.8301H16.8408H16.8514H16.862H16.8726H16.8831H16.8936H16.904H16.9144H16.9247H16.935H16.9453H16.9555H16.9656H17.4906V21C17.4906 20.8123 17.5714 20.5453 17.755 20.1704C17.8978 19.8787 18.0777 19.5695 18.2768 19.2271C18.3292 19.1371 18.3829 19.0448 18.4376 18.9499C18.9364 18.0847 19.525 17.0057 19.525 15.9012V15.8902V15.8792V15.8682V15.8573V15.8464V15.8355V15.8246V15.8138V15.803V15.7922V15.7815V15.7708V15.7601V15.7495V15.7389V15.7283V15.7178V15.7072V15.6968V15.6863V15.6759V15.6655V15.6551V15.6448V15.6344V15.6242V15.6139V15.6037V15.5935V15.5833V15.5732V15.5631V15.553V15.543V15.533V15.523V15.5131V15.5031V15.4932V15.4834V15.4735V15.4637V15.4539V15.4442V15.4345V15.4248V15.4151V15.4055V15.3959V15.3863V15.3768V15.3673V15.3578V15.3483V15.3389V15.3295V15.3201V15.3108V15.3014V15.2922V15.2829V15.2737V15.2645V15.2553V15.2462V15.237V15.228V15.2189V15.2099V15.2009V15.1919V15.183V15.174V15.1651V15.1563V15.1475V15.1386V15.1299V15.1211V15.1124V15.1037V15.095V15.0864V15.0778V15.0692V15.0607V15.0521V15.0436V15.0352V15.0267V15.0183V15.0099V15.0016V14.9932V14.9849V14.9766V14.9684V14.9602V14.952V14.9438V14.9357V14.9275V14.9195V14.9114V14.9034V14.8953V14.8874V14.8794V14.8715V14.8636V14.8557V14.8479V14.8401V14.8323V14.8245V14.8168V14.809V14.8014V14.7937V14.7861V14.7785V14.7709V14.7633V14.7558V14.7483V14.7408V14.7334V14.7259V14.7186V14.7112V14.7038V14.6965V14.6892V14.682V14.6747V14.6675V14.6603V14.6532V14.646V14.6389V14.6318V14.6248V14.6177V14.6107V14.6037V14.5968V14.5899V14.5829V14.5761V14.5692V14.5624V14.5556V14.5488V14.542V14.5353V14.5286V14.5219V14.5153V14.5087V14.5021V14.4955V14.4889V14.4824V14.4759V14.4694V14.463V14.4565V14.4501V14.4437V14.4374V14.4311V14.4248V14.4185V14.4122V14.406V14.3998V14.3936V14.3874V14.3813V14.3752V14.3691V14.3631V14.357V14.351V14.345V14.3391V14.3331V14.3272V14.3213V14.3154V14.3096V14.3038V14.298V14.2922V14.2865V14.2807V14.275V14.2694V14.2637V14.2581V14.2525V14.2469V14.2413V14.2358V14.2303V14.2248V14.2193V14.2139V14.2085V14.2031V14.1977V14.1924V14.187V14.1817V14.1764V14.1712V14.166V14.1607V14.1556V14.1504V14.1452V14.1401V14.135V14.13V14.1249V14.1199V14.1149V14.1099V14.1049V14.1V14.0951V14.0902V14.0853V14.0805V14.0756V14.0708V14.0661V14.0613V14.0566V14.0519V14.0472V14.0425V14.0378V14.0332V14.0286V14.024V14.0195V14.0149V14.0104V14.0059V14.0015V13.997V13.9926V13.9882V13.9838V13.9794V13.9751V13.9708V13.9665V13.9622V13.9579V13.9537V13.9495V13.9453V13.9411V13.937V13.9328V13.9287V13.9246V13.9206V13.9165V13.9125V13.9085V13.9045V13.9006V13.8966V13.8927V13.8888V13.8849V13.8811V13.8772V13.8734V13.8696V13.8659V13.8621V13.8584V13.8547V13.851V13.8473V13.8437V13.84V13.8364V13.8328V13.8293V13.8257V13.8222V13.8187V13.8152V13.8117V13.8083V13.8048V13.8014V13.7981V13.7947V13.7913V13.788V13.7847V13.7814V13.7781V13.7749V13.7717V13.7685V13.7653V13.7621V13.7589V13.7558V13.7527V13.7496V13.7465V13.7435V13.7404V13.7374V13.7344V13.7315V13.7285V13.7256V13.7226V13.7197V13.7169V13.714V13.7111V13.7083V13.7055V13.7027V13.7V13.6972V13.6945V13.6918V13.6891V13.6864V13.6837V13.6811V13.6785V13.6759V13.6733V13.6707V13.6682V13.6657V13.6631V13.6607V13.6582V13.6557V13.6533V13.6509V13.6485V13.6461V13.6437V13.6414V13.6391V13.6367V13.6344V13.6322V13.6299V13.6277V13.6255V13.6233V13.6211V13.6189V13.6167V13.6146V13.6125V13.6104V13.6083V13.6063V13.6042V13.6022V13.6002V13.5982V13.5962V13.5942V13.5923V13.5904V13.5885V13.5866V13.5847V13.5828V13.581V13.5792V13.5774V13.5756V13.5738V13.572V13.5703V13.5686V13.5669V13.5652V13.5635V13.5619V13.5602V13.5586V13.557V13.5554V13.5538V13.5523V13.5507V13.5492V13.5477V13.5462V13.5447V13.5432V13.5418V13.5404V13.539V13.5376V13.5362V13.5348V13.5335V13.5321V13.5308V13.5295V13.5282V13.527V13.5257V13.5245V13.5232V13.522V13.5208V13.5197V13.5185V13.5174V13.5162V13.5151V13.514V13.5129V13.5118V13.5108V13.5098V13.5087V13.5077V13.5067V13.5057V13.5048V13.5038V13.5029V13.502V13.5011V13.5002V13.4993V13.4984V13.4976V13.4968V13.4959V13.4951V13.4944V13.4936V13.4928V13.4921V13.4914V13.4906V13.4899V13.4892V13.4886V13.4879V13.4873V13.4866V13.486V13.4854V13.4848V13.4843V13.4837V13.4832V13.4826V13.4821V13.4816V13.4811V13.4806V13.4802V13.4797V13.4793V13.4789V13.4784V13.4781V13.4777V13.4773V13.4769V13.4766V13.4763V13.476V13.4757V13.4754V13.4751V13.4748V13.4746V13.4743V13.4741V13.4739V13.4737V13.4735V13.4734V13.4732V13.4731V13.4729V13.4728V13.4727V13.4726V13.4725V13.4725V13.4724V13.4724V13.4723V13.4723V13.4336L19.52 13.3999V12.2835C19.52 11.4476 18.7786 10.872 17.9981 10.872ZM19.1539 13.4495L19 13.4723L19.1537 13.4495H19.1539Z" stroke="black" stroke-width="1.05"/>
</g>
<defs>
<filter id="filter0_dd" x="0.949997" y="0.949997" width="24.1" height="30.1" filterUnits="userSpaceOnUse" color-interpolation-filters="sRGB">
<feFlood flood-opacity="0" result="BackgroundImageFix"/>
<feColorMatrix in="SourceAlpha" type="matrix" values="0 0 0 0 0 0 0 0 0 0 0 0 0 0 0 0 0 0 127 0" result="hardAlpha"/>
<feMorphology radius="1" operator="erode" in="SourceAlpha" result="effect1_dropShadow"/>
<feOffset dy="2"/>
<feGaussianBlur stdDeviation="2"/>
<feColorMatrix type="matrix" values="0 0 0 0 0.101961 0 0 0 0 0.12549 0 0 0 0 0.172549 0 0 0 0.06 0"/>
<feBlend mode="normal" in2="BackgroundImageFix" result="effect1_dropShadow"/>
<feColorMatrix in="SourceAlpha" type="matrix" values="0 0 0 0 0 0 0 0 0 0 0 0 0 0 0 0 0 0 127 0" result="hardAlpha"/>
<feMorphology radius="1" operator="erode" in="SourceAlpha" result="effect2_dropShadow"/>
<feOffset dy="4"/>
<feGaussianBlur stdDeviation="3"/>
<feColorMatrix type="matrix" values="0 0 0 0 0.101961 0 0 0 0 0.12549 0 0 0 0 0.172549 0 0 0 0.1 0"/>
<feBlend mode="normal" in2="effect1_dropShadow" result="effect2_dropShadow"/>
<feBlend mode="normal" in="SourceGraphic" in2="effect2_dropShadow" result="shape"/>
</filter>
</defs>
</svg>
